<svg xmlns="http://www.w3.org/2000/svg" viewBox="0 0 32 32"><path d="M20.9 4h-9.7C7.2 4 4 7.2 4 11.1v9.7c0 3.9 3.2 7.1 7.1 7.1h9.7c3.9 0 7.1-3.2 7.1-7.1v-9.7c.1-3.9-3.1-7.1-7-7.1zm4.7 16.9c0 2.6-2.1 4.7-4.7 4.7h-9.7c-2.6 0-4.7-2.1-4.7-4.7v-9.7c0-2.6 2.1-4.7 4.7-4.7h9.7c2.6 0 4.7 2.1 4.7 4.7v9.7zM16 10c-3.3 0-6 2.7-6 6s2.7 6 6 6 6-2.7 6-6-2.7-6-6-6zm0 9.7c-2 0-3.7-1.6-3.7-3.7s1.6-3.7 3.7-3.7c2 0 3.7 1.6 3.7 3.7 0 2-1.7 3.7-3.7 3.7zm8-10.2c0 .8-.7 1.5-1.5 1.5S21 10.3 21 9.5 21.7 8 22.5 8s1.5.7 1.5 1.5z" fill="#e1306c"/></svg>