<svg xmlns="http://www.w3.org/2000/svg" viewBox="0 0 32 32"><path d="M16.9 7.6L14.4 10c1.1-.1 2.1.1 3.1.5l1.1-1.1c1.1-1.1 2.9-1.1 4 0s1.1 2.9 0 3.9L19 16.9c-1.1 1.1-2.9 1.1-4 0-.3-.3-.5-.6-.6-.9l-1.9 1.9c.2.3.4.6.7.8.7.7 1.5 1.2 2.5 1.4 1.3.3 2.7.1 3.8-.5.4-.2.8-.5 1.2-.9l3.6-3.6c2.1-2.1 2.1-5.5 0-7.6-2-2-5.4-2-7.4.1zm-5.7 5.7c.4-.4.8-.7 1.2-.9 2.4-1.3 5.5-.6 7 1.7L17.5 16c-.5-1.2-1.9-1.9-3.2-1.6-.5.1-1 .4-1.4.7l-3.6 3.6c-1.1 1.1-1.1 2.9 0 3.9 1.1 1.1 2.9 1.1 4 0l1.1-1.1c1 .4 2.1.6 3.1.5l-2.4 2.4c-2.1 2.1-5.5 2.1-7.6 0s-2.1-5.5 0-7.6l3.7-3.5z"/></svg>