<svg xmlns="http://www.w3.org/2000/svg" xmlns:xlink="http://www.w3.org/1999/xlink" width="32" height="724"><symbol id="chevron-down" viewBox="0 0 24 14"><title>chevron-down</title>
    <path d="M2.83,0,12,8.66,21.17,0,24,2.67,12,14,0,2.67Z"/>
</symbol><use xlink:href="#chevron-down" x="0" y="0" width="24" height="14"/><symbol id="close" viewBox="0 0 28 28"><title>close</title><path d="M28 2.83L25.17 0 14 11.17 2.83 0 0 2.83 11.17 14 0 25.17 2.83 28 14 16.83 25.17 28 28 25.17 16.83 14z"/></symbol><use xlink:href="#close" x="0" y="16" width="28" height="28"/><symbol id="facebook-color" viewBox="0 0 32 32"><title>facebook-color</title><path d="M18.4 17.7h3.8l.6-4.8h-4.4V9.8c0-1.4.4-2.3 2.2-2.3H23V3.2c-.4-.1-1.8-.2-3.4-.2-3.4 0-5.7 2.2-5.7 6.3v3.5H10v4.8h3.8V30h4.6V17.7z" fill-rule="evenodd" clip-rule="evenodd" fill="#3b5998"/></symbol><use xlink:href="#facebook-color" x="0" y="46" width="32" height="32"/><symbol id="facebook-mono" viewBox="0 0 32 32"><title>facebook-mono</title><path d="M18.4 30V17.7h3.8l.6-4.8h-4.4V9.8c0-1.4.4-2.3 2.2-2.3H23V3.2c-.4-.1-1.8-.2-3.4-.2-3.4 0-5.7 2.2-5.7 6.3v3.5H10v4.8h3.8V30h4.6" fill-rule="evenodd" clip-rule="evenodd"/></symbol><use xlink:href="#facebook-mono" x="0" y="80" width="32" height="32"/><symbol id="googleplus-color" viewBox="0 0 32 32"><title>googleplus-color</title><defs><path id="a" d="M29 17.6h-3.2v3.2h-2.2v-3.2h-3.2v-2.1h3.2v-3.2h2.2v3.2H29v2.1m-18.4-2.2V18h4.3c-.2 1.1-1.3 3.2-4.3 3.2-2.6 0-4.7-2.1-4.7-4.7s2.1-4.7 4.7-4.7c1.5 0 2.5.6 3 1.2l2.1-2c-1.3-1.2-3-2-5.1-2C6.4 9 3 12.4 3 16.5S6.4 24 10.6 24c4.4 0 7.3-3 7.3-7.3 0-.5-.1-.9-.1-1.2h-7.2z"/></defs><use xmlns:xlink="http://www.w3.org/1999/xlink" xlink:href="#a" overflow="visible" fill="#dd4b39"/></symbol><use xlink:href="#googleplus-color" x="0" y="114" width="32" height="32"/><symbol id="googleplus-mono" viewBox="0 0 32 32"><title>googleplus-mono</title><defs><path id="a" d="M29 17.6h-3.2v3.2h-2.2v-3.2h-3.2v-2.1h3.2v-3.2h2.2v3.2H29v2.1m-18.4-2.2V18h4.3c-.2 1.1-1.3 3.2-4.3 3.2-2.6 0-4.7-2.1-4.7-4.7s2.1-4.7 4.7-4.7c1.5 0 2.5.6 3 1.2l2.1-2c-1.3-1.2-3-2-5.1-2C6.4 9 3 12.4 3 16.5S6.4 24 10.6 24c4.4 0 7.3-3 7.3-7.3 0-.5-.1-.9-.1-1.2h-7.2z"/></defs><use xlink:href="#a" overflow="visible"/></symbol><use xlink:href="#googleplus-mono" x="0" y="148" width="32" height="32"/><symbol id="instagram-color" viewBox="0 0 32 32"><title>instagram-color</title><path d="M20.9 4h-9.7C7.2 4 4 7.2 4 11.1v9.7c0 3.9 3.2 7.1 7.1 7.1h9.7c3.9 0 7.1-3.2 7.1-7.1v-9.7c.1-3.9-3.1-7.1-7-7.1zm4.7 16.9c0 2.6-2.1 4.7-4.7 4.7h-9.7c-2.6 0-4.7-2.1-4.7-4.7v-9.7c0-2.6 2.1-4.7 4.7-4.7h9.7c2.6 0 4.7 2.1 4.7 4.7v9.7zM16 10c-3.3 0-6 2.7-6 6s2.7 6 6 6 6-2.7 6-6-2.7-6-6-6zm0 9.7c-2 0-3.7-1.6-3.7-3.7s1.6-3.7 3.7-3.7c2 0 3.7 1.6 3.7 3.7 0 2-1.7 3.7-3.7 3.7zm8-10.2c0 .8-.7 1.5-1.5 1.5S21 10.3 21 9.5 21.7 8 22.5 8s1.5.7 1.5 1.5z" fill="#e1306c"/></symbol><use xlink:href="#instagram-color" x="0" y="182" width="32" height="32"/><symbol id="instagram-mono" viewBox="0 0 32 32"><title>instagram-mono</title><path d="M20.9 4h-9.7C7.2 4 4 7.2 4 11.1v9.7c0 3.9 3.2 7.1 7.1 7.1h9.7c3.9 0 7.1-3.2 7.1-7.1v-9.7c.1-3.9-3.1-7.1-7-7.1zm4.7 16.9c0 2.6-2.1 4.7-4.7 4.7h-9.7c-2.6 0-4.7-2.1-4.7-4.7v-9.7c0-2.6 2.1-4.7 4.7-4.7h9.7c2.6 0 4.7 2.1 4.7 4.7v9.7zM16 10c-3.3 0-6 2.7-6 6s2.7 6 6 6 6-2.7 6-6-2.7-6-6-6zm0 9.7c-2 0-3.7-1.6-3.7-3.7s1.6-3.7 3.7-3.7c2 0 3.7 1.6 3.7 3.7 0 2-1.7 3.7-3.7 3.7zm8-10.2c0 .8-.7 1.5-1.5 1.5S21 10.3 21 9.5 21.7 8 22.5 8s1.5.7 1.5 1.5z"/></symbol><use xlink:href="#instagram-mono" x="0" y="216" width="32" height="32"/><symbol id="link-color" viewBox="0 0 32 32"><title>link-color</title><path d="M16.9 7.6L14.4 10c1.1-.1 2.1.1 3.1.5l1.1-1.1c1.1-1.1 2.9-1.1 4 0s1.1 2.9 0 3.9L19 16.9c-1.1 1.1-2.9 1.1-4 0-.3-.3-.5-.6-.6-.9l-1.9 1.9c.2.3.4.6.7.8.7.7 1.5 1.2 2.5 1.4 1.3.3 2.7.1 3.8-.5.4-.2.8-.5 1.2-.9l3.6-3.6c2.1-2.1 2.1-5.5 0-7.6-2-2-5.4-2-7.4.1zm-5.7 5.7c.4-.4.8-.7 1.2-.9 2.4-1.3 5.5-.6 7 1.7L17.5 16c-.5-1.2-1.9-1.9-3.2-1.6-.5.1-1 .4-1.4.7l-3.6 3.6c-1.1 1.1-1.1 2.9 0 3.9 1.1 1.1 2.9 1.1 4 0l1.1-1.1c1 .4 2.1.6 3.1.5l-2.4 2.4c-2.1 2.1-5.5 2.1-7.6 0s-2.1-5.5 0-7.6l3.7-3.5z" fill="#4a90e2"/></symbol><use xlink:href="#link-color" x="0" y="250" width="32" height="32"/><symbol id="link-mono" viewBox="0 0 32 32"><title>link-mono</title><path d="M16.9 7.6L14.4 10c1.1-.1 2.1.1 3.1.5l1.1-1.1c1.1-1.1 2.9-1.1 4 0s1.1 2.9 0 3.9L19 16.9c-1.1 1.1-2.9 1.1-4 0-.3-.3-.5-.6-.6-.9l-1.9 1.9c.2.3.4.6.7.8.7.7 1.5 1.2 2.5 1.4 1.3.3 2.7.1 3.8-.5.4-.2.8-.5 1.2-.9l3.6-3.6c2.1-2.1 2.1-5.5 0-7.6-2-2-5.4-2-7.4.1zm-5.7 5.7c.4-.4.8-.7 1.2-.9 2.4-1.3 5.5-.6 7 1.7L17.5 16c-.5-1.2-1.9-1.9-3.2-1.6-.5.1-1 .4-1.4.7l-3.6 3.6c-1.1 1.1-1.1 2.9 0 3.9 1.1 1.1 2.9 1.1 4 0l1.1-1.1c1 .4 2.1.6 3.1.5l-2.4 2.4c-2.1 2.1-5.5 2.1-7.6 0s-2.1-5.5 0-7.6l3.7-3.5z"/></symbol><use xlink:href="#link-mono" x="0" y="284" width="32" height="32"/><symbol id="linkedin-color" viewBox="0 0 32 32"><title>linkedin-color</title><path d="M5.4 12.6h4.8v15.3H5.4V12.6zm16.8-.4c-2.3 0-3.9 1.3-4.5 2.5h-.1v-2.1h-4.5v15.3h4.7v-7.6c0-2 .4-3.9 2.8-3.9s2.5 2.3 2.5 4v7.4h4.7v-8.4c.1-4-.8-7.2-5.6-7.2zM7.8 5C6.2 5 5 6.2 5 7.8c0 1.5 1.2 2.8 2.8 2.8 1.5 0 2.8-1.2 2.8-2.8C10.5 6.2 9.3 5 7.8 5z" fill="#0077b5"/></symbol><use xlink:href="#linkedin-color" x="0" y="318" width="32" height="32"/><symbol id="linkedin-mono" viewBox="0 0 32 32"><title>linkedin-mono</title><path d="M5.4 12.6h4.8v15.3H5.4V12.6zm16.8-.4c-2.3 0-3.9 1.3-4.5 2.5h-.1v-2.1h-4.5v15.3h4.7v-7.6c0-2 .4-3.9 2.8-3.9s2.5 2.3 2.5 4v7.4h4.7v-8.4c.1-4-.8-7.2-5.6-7.2zM7.8 5C6.2 5 5 6.2 5 7.8c0 1.5 1.2 2.8 2.8 2.8 1.5 0 2.8-1.2 2.8-2.8C10.5 6.2 9.3 5 7.8 5z"/></symbol><use xlink:href="#linkedin-mono" x="0" y="352" width="32" height="32"/><symbol id="mail-color" viewBox="0 0 32 32"><title>mail-color</title><path d="M19.2 16.6L16 19.2l-3.2-2.6L6 24h20l-6.8-7.4zm1.3-1l5.5 6V11.1l-5.5 4.5zm-9 0L6 11.1v10.4l5.5-5.9zm4.5 1.5L6 9h20l-10 8.1z" fill="#4a90e2"/></symbol><use xlink:href="#mail-color" x="0" y="386" width="32" height="32"/><symbol id="mail-mono" viewBox="0 0 32 32"><title>mail-mono</title><path d="M19.2 16.6L16 19.2l-3.2-2.6L6 24h20l-6.8-7.4zm1.3-1l5.5 6V11.1l-5.5 4.5zm-9 0L6 11.1v10.4l5.5-5.9zm4.5 1.5L6 9h20l-10 8.1z"/></symbol><use xlink:href="#mail-mono" x="0" y="420" width="32" height="32"/><symbol id="search" viewBox="0 0 32 32"><title>search</title>
  <path d="M23.38,19.5a12.64,12.64,0,1,0-3.81,3.85l.57-.4L29.19,32,32,29.14l-9-9ZM19.78,5.6A10,10,0,0,1,12.7,22.7,10,10,0,0,1,5.62,5.6a10,10,0,0,1,14.16,0Z"/>
</symbol><use xlink:href="#search" x="0" y="454" width="32" height="32"/><symbol id="settings" viewBox="0 0 32 32">
  <title>settings</title>
  <path d="M32,18.28V13.71H27.2a11.45,11.45,0,0,0-1.58-3.87L29,6.42,25.81,3.19,22.44,6.56A11.53,11.53,0,0,0,18.29,4.8V0H13.71V4.8a11.49,11.49,0,0,0-4,1.67L6.42,3.19,3.18,6.42,6.47,9.7a11.38,11.38,0,0,0-1.67,4H0v4.58H4.8a11.53,11.53,0,0,0,1.76,4.15L3.18,25.81,6.42,29l3.42-3.42a11.63,11.63,0,0,0,3.88,1.58V32h4.57V27.2a11.38,11.38,0,0,0,4-1.67L25.81,29l3.24-3.23L25.53,22.3a11.35,11.35,0,0,0,1.67-4ZM16,22.86A6.86,6.86,0,1,1,22.86,16,6.88,6.88,0,0,1,16,22.86Z"/>
</symbol><use xlink:href="#settings" x="0" y="488" width="32" height="32"/><symbol id="twitter-color" viewBox="0 0 32 32"><title>twitter-color</title><path d="M15.6 11.7v.7c-5.3-1-7.9-2.4-10.8-5.5-1.7 3.4.2 6.2 2.2 7.8-1.4 0-2.6-.2-3.5-1-.1 0-.2 0-.1.1.8 2.8 3.4 4.9 5.4 5.5-1.8 0-3.1.3-4.4-.5-.1 0-.2 0-.1.1 1 2.8 3 3.6 5.9 3.6-1.4 1.1-3.4 2.2-7 2.3-.1 0-.2.2-.1.3 1.4 1.1 4.7 2 9.4 2 7.7 0 14-6.9 14-15.5V11c1.2-.5 1.9-1.5 2.3-2.6 0 0 0-.1-.1-.1l-2.7.9s-.1-.1 0-.1c1.1-.9 1.9-2 2.3-3h-.1c-1.2.5-2.4 1-3.3 1.3h-.5C23.8 6.9 22 6 20.9 6c-3 0-5.3 2.6-5.3 5.7z" fill-rule="evenodd" clip-rule="evenodd" fill="#1da1f2"/></symbol><use xlink:href="#twitter-color" x="0" y="522" width="32" height="32"/><symbol id="twitter-mono" viewBox="0 0 32 32"><title>twitter-mono</title><path d="M15.6 11.7v.7c-5.3-1-7.9-2.4-10.8-5.5-1.7 3.4.2 6.2 2.2 7.8-1.4 0-2.6-.2-3.5-1-.1 0-.2 0-.1.1.8 2.8 3.4 4.9 5.4 5.5-1.8 0-3.1.3-4.4-.5-.1 0-.2 0-.1.1 1 2.8 3 3.6 5.9 3.6-1.4 1.1-3.4 2.2-7 2.3-.1 0-.2.2-.1.3 1.4 1.1 4.7 2 9.4 2 7.7 0 14-6.9 14-15.5V11c1.2-.5 1.9-1.5 2.3-2.6 0 0 0-.1-.1-.1l-2.7.9s-.1-.1 0-.1c1.1-.9 1.9-2 2.3-3h-.1c-1.2.5-2.4 1-3.3 1.3h-.5C23.8 6.9 22 6 20.9 6c-3 0-5.3 2.6-5.3 5.7z" fill-rule="evenodd" clip-rule="evenodd"/></symbol><use xlink:href="#twitter-mono" x="0" y="556" width="32" height="32"/><symbol id="whatsapp-color" viewBox="0 0 32 32"><title>whatsapp-color</title><path d="M21.6 18.5c-.1-.1-.3-.2-.5-.3-.3-.1-1.6-.8-1.9-.9-.3-.1-.4-.1-.6.1-.2.3-.7.9-.9 1.1s-.3.2-.6.1-1.2-.4-2.2-1.4c-.8-.7-1.4-1.6-1.5-1.9-.2-.3 0-.4.1-.6.1-.1.3-.3.4-.5.1-.2.2-.3.3-.5.1-.2 0-.3 0-.5-.1-.1-.6-1.5-.8-2-.2-.5-.4-.5-.6-.5h-.5c-.2 0-.5.1-.7.3-.3.3-1 .9-1 2.3 0 1.3 1 2.6 1.1 2.8.1.2 1.9 2.9 4.7 4.1.7.3 1.2.4 1.6.6.7.2 1.3.2 1.7.1.5-.1 1.6-.7 1.8-1.3.1-.4.1-1 .1-1.1zm-10.5 5c1.5.9 3 1.5 5 1.5 5 0 9.1-4.1 9.1-9.1s-4.1-9.1-9.1-9.1S7 10.9 7 15.9c0 2 .6 3.6 1.6 5.2l-.9 3.3 3.4-.9zM5 27l1.6-5.6c-1-1.7-1.5-3.5-1.5-5.5C5.1 9.9 10 5 16 5c2.9 0 5.7 1.1 7.7 3.2 2.1 2.1 3.2 4.8 3.2 7.7 0 6-4.9 10.9-11 10.9-1.8 0-3.6-.5-5.2-1.3L5 27z" fill="#25d366"/></symbol><use xlink:href="#whatsapp-color" x="0" y="590" width="32" height="32"/><symbol id="whatsapp-mono" viewBox="0 0 32 32"><title>whatsapp-mono</title><path d="M21.6 18.5c-.1-.1-.3-.2-.5-.3-.3-.1-1.6-.8-1.9-.9-.3-.1-.4-.1-.6.1-.2.3-.7.9-.9 1.1s-.3.2-.6.1-1.2-.4-2.2-1.4c-.8-.7-1.4-1.6-1.5-1.9-.2-.3 0-.4.1-.6.1-.1.3-.3.4-.5.1-.2.2-.3.3-.5.1-.2 0-.3 0-.5-.1-.1-.6-1.5-.8-2-.2-.5-.4-.5-.6-.5h-.5c-.2 0-.5.1-.7.3-.3.3-1 .9-1 2.3 0 1.3 1 2.6 1.1 2.8.1.2 1.9 2.9 4.7 4.1.7.3 1.2.4 1.6.6.7.2 1.3.2 1.7.1.5-.1 1.6-.7 1.8-1.3.1-.4.1-1 .1-1.1zm-10.5 5c1.5.9 3 1.5 5 1.5 5 0 9.1-4.1 9.1-9.1s-4.1-9.1-9.1-9.1S7 10.9 7 15.9c0 2 .6 3.6 1.6 5.2l-.9 3.3 3.4-.9zM5 27l1.6-5.6c-1-1.7-1.5-3.5-1.5-5.5C5.1 9.9 10 5 16 5c2.9 0 5.7 1.1 7.7 3.2 2.1 2.1 3.2 4.8 3.2 7.7 0 6-4.9 10.9-11 10.9-1.8 0-3.6-.5-5.2-1.3L5 27z"/></symbol><use xlink:href="#whatsapp-mono" x="0" y="624" width="32" height="32"/><symbol id="youtube-color" viewBox="0 0 32 32"><title>youtube-color</title><path d="M13 20v-8l8 4-8 4zM23.6 7.2C20 6.9 12 6.9 8.4 7.2 4.5 7.5 4 9.8 4 16s.5 8.5 4.4 8.8c3.6.2 11.6.2 15.2 0 3.9-.3 4.4-2.6 4.4-8.8 0-6.2-.5-8.5-4.4-8.8z" fill="red"/></symbol><use xlink:href="#youtube-color" x="0" y="658" width="32" height="32"/><symbol id="youtube-mono" viewBox="0 0 32 32"><title>youtube-mono</title><path d="M13 20v-8l8 4-8 4zM23.6 7.2C20 6.9 12 6.9 8.4 7.2 4.5 7.5 4 9.8 4 16s.5 8.5 4.4 8.8c3.6.2 11.6.2 15.2 0 3.9-.3 4.4-2.6 4.4-8.8 0-6.2-.5-8.5-4.4-8.8z"/></symbol><use xlink:href="#youtube-mono" x="0" y="692" width="32" height="32"/></svg>