<svg id="settings" data-name="settings" xmlns="http://www.w3.org/2000/svg" width="32" height="32" viewBox="0 0 32 32">
  <title>settings</title>
  <path d="M32,18.28V13.71H27.2a11.45,11.45,0,0,0-1.58-3.87L29,6.42,25.81,3.19,22.44,6.56A11.53,11.53,0,0,0,18.29,4.8V0H13.71V4.8a11.49,11.49,0,0,0-4,1.67L6.42,3.19,3.18,6.42,6.47,9.7a11.38,11.38,0,0,0-1.67,4H0v4.58H4.8a11.53,11.53,0,0,0,1.76,4.15L3.18,25.81,6.42,29l3.42-3.42a11.63,11.63,0,0,0,3.88,1.58V32h4.57V27.2a11.38,11.38,0,0,0,4-1.67L25.81,29l3.24-3.23L25.53,22.3a11.35,11.35,0,0,0,1.67-4ZM16,22.86A6.86,6.86,0,1,1,22.86,16,6.88,6.88,0,0,1,16,22.86Z"/>
</svg>