<svg xmlns="http://www.w3.org/2000/svg" viewBox="0 0 32 32"><path d="M15.6 11.7v.7c-5.3-1-7.9-2.4-10.8-5.5-1.7 3.4.2 6.2 2.2 7.8-1.4 0-2.6-.2-3.5-1-.1 0-.2 0-.1.1.8 2.8 3.4 4.9 5.4 5.5-1.8 0-3.1.3-4.4-.5-.1 0-.2 0-.1.1 1 2.8 3 3.6 5.9 3.6-1.4 1.1-3.4 2.2-7 2.3-.1 0-.2.2-.1.3 1.4 1.1 4.7 2 9.4 2 7.7 0 14-6.9 14-15.5V11c1.2-.5 1.9-1.5 2.3-2.6 0 0 0-.1-.1-.1l-2.7.9s-.1-.1 0-.1c1.1-.9 1.9-2 2.3-3h-.1c-1.2.5-2.4 1-3.3 1.3h-.5C23.8 6.9 22 6 20.9 6c-3 0-5.3 2.6-5.3 5.7z" fill-rule="evenodd" clip-rule="evenodd" fill="#1da1f2"/></svg>