<svg xmlns="http://www.w3.org/2000/svg" viewBox="0 0 32 32"><path d="M21.6 18.5c-.1-.1-.3-.2-.5-.3-.3-.1-1.6-.8-1.9-.9-.3-.1-.4-.1-.6.1-.2.3-.7.9-.9 1.1s-.3.2-.6.1-1.2-.4-2.2-1.4c-.8-.7-1.4-1.6-1.5-1.9-.2-.3 0-.4.1-.6.1-.1.3-.3.4-.5.1-.2.2-.3.3-.5.1-.2 0-.3 0-.5-.1-.1-.6-1.5-.8-2-.2-.5-.4-.5-.6-.5h-.5c-.2 0-.5.1-.7.3-.3.3-1 .9-1 2.3 0 1.3 1 2.6 1.1 2.8.1.2 1.9 2.9 4.7 4.1.7.3 1.2.4 1.6.6.7.2 1.3.2 1.7.1.5-.1 1.6-.7 1.8-1.3.1-.4.1-1 .1-1.1zm-10.5 5c1.5.9 3 1.5 5 1.5 5 0 9.1-4.1 9.1-9.1s-4.1-9.1-9.1-9.1S7 10.9 7 15.9c0 2 .6 3.6 1.6 5.2l-.9 3.3 3.4-.9zM5 27l1.6-5.6c-1-1.7-1.5-3.5-1.5-5.5C5.1 9.9 10 5 16 5c2.9 0 5.7 1.1 7.7 3.2 2.1 2.1 3.2 4.8 3.2 7.7 0 6-4.9 10.9-11 10.9-1.8 0-3.6-.5-5.2-1.3L5 27z"/></svg>